<svg width="595" height="177" viewBox="0 0 595 177" fill="none" xmlns="http://www.w3.org/2000/svg">
<path d="M0 132.582V37.2333H36.0908L31.1366 132.582H0Z" fill="#035C3C"/>
<path fill-rule="evenodd" clip-rule="evenodd" d="M128.479 0H56.4614V25.6172H102.885L102.774 48.0988H128.328L128.479 0Z" fill="#F99D1C"/>
<path d="M24.8412 82.2729L40.4676 60.9819L53.0934 43.2423L57.025 37.2341C65.6712 37.3301 71.5302 37.378 74.6049 37.378C75.4386 37.378 80.9883 37.3301 91.2785 37.2341L61.8368 74.4534L56.309 81.9167L61.4781 90.1651L90.6613 132.581L73.4837 132.437C69.7684 132.437 63.4563 132.487 54.5705 132.581C48.5677 121.256 38.6579 104.496 24.8412 82.2729Z" fill="#89C765"/>
<path d="M250.145 158.051V165.834H252.035C253.579 165.834 254.76 165.495 255.585 164.809C256.408 164.125 256.824 163.143 256.824 161.863C256.824 160.662 256.443 159.726 255.679 159.057C254.919 158.385 253.839 158.051 252.445 158.051H250.145ZM247.232 155.78H252.414C254.893 155.78 256.754 156.295 257.993 157.321C259.232 158.346 259.852 159.881 259.852 161.938C259.852 163.889 259.192 165.405 257.868 166.485C256.549 167.565 254.68 168.106 252.27 168.106H250.145V176.605H247.232V155.78ZM269.869 158.33L265.74 168.926H273.868L269.869 158.33ZM268.154 155.78H271.698L279.854 176.605H276.706L274.701 171.256H264.8L262.796 176.605H259.853L268.154 155.78ZM284.997 158.02V165.114H287.236C288.691 165.114 289.829 164.795 290.656 164.154C291.479 163.512 291.895 162.633 291.895 161.508C291.895 160.307 291.508 159.426 290.746 158.862C289.981 158.301 288.781 158.02 287.151 158.02H284.997ZM282.113 155.78H287.721C290.095 155.78 291.879 156.225 293.074 157.121C294.268 158.016 294.868 159.346 294.868 161.112C294.868 162.432 294.479 163.528 293.699 164.405C292.914 165.279 291.795 165.869 290.329 166.184C290.955 166.35 291.459 166.635 291.848 167.035C292.239 167.436 292.644 168.131 293.064 169.131L296.217 176.605H293.093L290.355 169.793C289.995 168.912 289.54 168.291 288.996 167.925C288.445 167.565 287.67 167.385 286.666 167.385H284.997V176.605H282.113V155.78ZM314.166 156.525L314.051 159.047C313.245 158.717 312.465 158.467 311.695 158.301C310.931 158.137 310.152 158.051 309.361 158.051C306.863 158.051 304.879 158.781 303.409 160.242C301.94 161.703 301.205 163.674 301.205 166.155C301.205 168.666 301.935 170.643 303.401 172.078C304.863 173.513 306.863 174.234 309.392 174.234C310.192 174.234 310.972 174.159 311.736 174.01C312.496 173.854 313.245 173.633 313.99 173.338L314.076 175.945C313.356 176.18 312.586 176.359 311.767 176.48C310.942 176.605 310.077 176.664 309.157 176.664C305.749 176.664 303.065 175.74 301.096 173.889C299.131 172.037 298.146 169.512 298.146 166.315C298.146 163.082 299.151 160.506 301.155 158.592C303.16 156.676 305.858 155.719 309.247 155.719C310.152 155.719 311.022 155.785 311.845 155.92C312.67 156.051 313.44 156.25 314.166 156.525ZM317.52 155.78H328.784V158.02H320.433V164.629H328.33V166.975H320.433V174.205H329.059V176.605H317.52V155.78ZM333.567 155.78H336.481V176.605H333.567V155.78ZM344.518 158.02V165.114H346.756C348.212 165.114 349.35 164.795 350.175 164.154C351 163.512 351.414 162.633 351.414 161.508C351.414 160.307 351.029 159.426 350.266 158.862C349.5 158.301 348.302 158.02 346.671 158.02H344.518ZM341.634 155.78H347.242C349.615 155.78 351.4 156.225 352.595 157.121C353.789 158.016 354.389 159.346 354.389 161.112C354.389 162.432 353.998 163.528 353.22 164.405C352.434 165.279 351.316 165.869 349.85 166.184C350.475 166.35 350.98 166.635 351.369 167.035C351.76 167.436 352.165 168.131 352.584 169.131L355.738 176.605H352.614L349.876 169.793C349.515 168.912 349.06 168.291 348.515 167.925C347.966 167.565 347.191 167.385 346.187 167.385H344.518V176.605H341.634V155.78ZM366.304 158.33L362.175 168.926H370.301L366.304 158.33ZM364.589 155.78H368.133L376.29 176.605H373.141L371.137 171.256H361.236L359.231 176.605H356.287L364.589 155.78ZM387.159 155.78H390.818L399.869 171.988C399.994 172.223 400.15 172.584 400.33 173.063C400.51 173.549 400.7 174.119 400.895 174.774C400.77 174.01 400.668 173.324 400.604 172.713C400.535 172.102 400.5 171.578 400.5 171.137V155.78H403.178V176.605H399.605L390.394 160.252C390.278 160.051 390.138 159.726 389.968 159.262C389.804 158.797 389.618 158.19 389.414 157.451C389.559 158.566 389.665 159.422 389.729 160.032C389.794 160.637 389.823 161.073 389.823 161.332V176.605H387.159V155.78ZM416.698 157.701C414.754 157.701 413.2 158.471 412.029 160.006C410.86 161.547 410.274 163.598 410.274 166.155C410.274 168.727 410.86 170.777 412.029 172.303C413.2 173.834 414.754 174.598 416.698 174.598C418.637 174.598 420.192 173.834 421.367 172.303C422.54 170.777 423.131 168.727 423.131 166.155C423.131 163.598 422.54 161.547 421.361 160.006C420.181 158.471 418.627 157.701 416.698 157.701ZM416.698 155.385C419.606 155.385 421.905 156.35 423.595 158.281C425.289 160.207 426.135 162.844 426.135 166.184C426.135 169.537 425.289 172.178 423.605 174.103C421.916 176.035 419.612 177 416.698 177C413.789 177 411.49 176.035 409.791 174.103C408.096 172.178 407.248 169.537 407.248 166.184C407.248 162.844 408.096 160.207 409.791 158.281C411.49 156.35 413.789 155.385 416.698 155.385ZM441.013 156.325L440.717 158.877C440.074 158.561 439.413 158.326 438.734 158.172C438.059 158.016 437.344 157.936 436.605 157.936C435.346 157.936 434.36 158.172 433.651 158.641C432.945 159.106 432.592 159.752 432.592 160.572C432.592 161.217 432.83 161.803 433.311 162.334C433.786 162.858 434.82 163.559 436.399 164.428C438.458 165.559 439.879 166.591 440.663 167.52C441.443 168.445 441.832 169.506 441.832 170.697C441.832 172.467 441.187 173.92 439.893 175.049C438.598 176.184 436.939 176.75 434.904 176.75C433.921 176.75 432.981 176.67 432.082 176.514C431.182 176.359 430.342 176.131 429.562 175.83L429.851 173.028C430.713 173.478 431.542 173.809 432.341 174.024C433.145 174.239 433.925 174.348 434.685 174.348C435.905 174.348 436.89 174.074 437.629 173.529C438.374 172.983 438.745 172.257 438.745 171.357C438.745 169.961 437.285 168.436 434.366 166.775C433.876 166.5 433.506 166.285 433.252 166.129C432.136 165.485 431.262 164.699 430.627 163.768C429.992 162.838 429.677 161.887 429.677 160.912C429.677 159.287 430.297 158.001 431.532 157.051C432.766 156.094 434.445 155.62 436.575 155.62C437.363 155.62 438.135 155.68 438.874 155.795C439.619 155.915 440.328 156.09 441.013 156.325ZM454.627 155.78H458.285L467.337 171.988C467.461 172.223 467.617 172.584 467.796 173.063C467.977 173.549 468.166 174.119 468.362 174.774C468.237 174.01 468.135 173.324 468.071 172.713C468.002 172.102 467.967 171.578 467.967 171.137V155.78H470.645V176.605H467.072L457.861 160.252C457.746 160.051 457.605 159.726 457.436 159.262C457.27 158.797 457.085 158.19 456.881 157.451C457.026 158.566 457.131 159.422 457.196 160.032C457.261 160.637 457.292 161.073 457.292 161.332V176.605H454.627V155.78ZM475.768 155.78H487.034V158.02H478.683V164.629H486.579V166.975H478.683V174.205H487.309V176.605H475.768V155.78ZM507.744 156.7L507.32 159.162C506.531 158.762 505.702 158.461 504.83 158.262C503.962 158.061 503.072 157.961 502.168 157.961C499.658 157.961 497.65 158.721 496.141 160.242C494.63 161.758 493.876 163.768 493.876 166.275C493.876 168.737 494.63 170.703 496.141 172.172C497.65 173.643 499.669 174.379 502.199 174.379C502.772 174.379 503.332 174.328 503.882 174.234C504.427 174.133 504.967 173.984 505.491 173.779V167.445H501.143V165.174H508.315V175.61C507.35 175.969 506.337 176.246 505.276 176.426C504.217 176.605 503.106 176.695 501.947 176.695C498.53 176.695 495.825 175.754 493.826 173.873C491.831 171.992 490.832 169.441 490.832 166.215C490.832 163.008 491.842 160.452 493.856 158.547C495.87 156.641 498.588 155.689 502.003 155.689C502.973 155.689 503.931 155.774 504.891 155.939C505.846 156.104 506.8 156.36 507.744 156.7ZM521.534 157.701C519.59 157.701 518.036 158.471 516.866 160.006C515.696 161.547 515.112 163.598 515.112 166.155C515.112 168.727 515.696 170.777 516.866 172.303C518.036 173.834 519.59 174.598 521.534 174.598C523.473 174.598 525.028 173.834 526.202 172.303C527.377 170.777 527.967 168.727 527.967 166.155C527.967 163.598 527.378 161.547 526.197 160.006C525.017 158.471 523.463 157.701 521.534 157.701ZM521.534 155.385C524.444 155.385 526.741 156.35 528.432 158.281C530.125 160.207 530.971 162.844 530.971 166.184C530.971 169.537 530.125 172.178 528.441 174.103C526.753 176.035 524.448 177 521.534 177C518.625 177 516.326 176.035 514.628 174.103C512.933 172.178 512.084 169.537 512.084 166.184C512.084 162.844 512.933 160.207 514.628 158.281C516.326 156.35 518.625 155.385 521.534 155.385ZM522.534 148.541H525.287L521.113 153.744H519.536L522.534 148.541ZM550.048 156.525L549.933 159.047C549.127 158.717 548.347 158.467 547.579 158.301C546.814 158.137 546.034 158.051 545.245 158.051C542.745 158.051 540.761 158.781 539.293 160.242C537.822 161.703 537.087 163.674 537.087 166.155C537.087 168.666 537.817 170.643 539.281 172.078C540.747 173.513 542.745 174.234 545.274 174.234C546.074 174.234 546.854 174.159 547.618 174.01C548.378 173.854 549.127 173.633 549.872 173.338L549.957 175.945C549.238 176.18 548.468 176.359 547.649 176.48C546.824 176.605 545.96 176.664 545.04 176.664C541.631 176.664 538.947 175.74 536.978 173.889C535.013 172.037 534.03 169.512 534.03 166.315C534.03 163.082 535.033 160.506 537.037 158.592C539.042 156.676 541.742 155.719 545.13 155.719C546.034 155.719 546.904 155.785 547.729 155.92C548.554 156.051 549.322 156.25 550.048 156.525ZM553.402 155.78H556.315V176.605H553.402V155.78ZM569.865 157.701C567.92 157.701 566.366 158.471 565.197 160.006C564.026 161.547 563.442 163.598 563.442 166.155C563.442 168.727 564.026 170.777 565.197 172.303C566.366 173.834 567.92 174.598 569.865 174.598C571.804 174.598 573.358 173.834 574.533 172.303C575.706 170.777 576.297 168.727 576.297 166.155C576.297 163.598 575.706 161.547 574.527 160.006C573.348 158.471 571.793 157.701 569.865 157.701ZM569.865 155.385C572.772 155.385 575.072 156.35 576.762 158.281C578.456 160.207 579.301 162.844 579.301 166.184C579.301 169.537 578.456 172.178 576.771 174.103C575.083 176.035 572.778 177 569.865 177C566.956 177 564.656 176.035 562.957 174.103C561.262 172.178 560.414 169.537 560.414 166.184C560.414 162.844 561.262 160.207 562.957 158.281C564.656 156.35 566.956 155.385 569.865 155.385ZM594.179 156.325L593.883 158.877C593.24 158.561 592.58 158.326 591.901 158.172C591.225 158.016 590.511 157.936 589.771 157.936C588.512 157.936 587.527 158.172 586.817 158.641C586.111 159.106 585.758 159.752 585.758 160.572C585.758 161.217 585.997 161.803 586.477 162.334C586.952 162.858 587.986 163.559 589.567 164.428C591.625 165.559 593.045 166.591 593.829 167.52C594.609 168.445 595 169.506 595 170.697C595 172.467 594.354 173.92 593.06 175.049C591.764 176.184 590.105 176.75 588.072 176.75C587.087 176.75 586.148 176.67 585.249 176.514C584.348 176.359 583.509 176.131 582.729 175.83L583.018 173.028C583.879 173.478 584.708 173.809 585.507 174.024C586.312 174.239 587.092 174.348 587.853 174.348C589.071 174.348 590.056 174.074 590.795 173.529C591.54 172.983 591.911 172.257 591.911 171.357C591.911 169.961 590.451 168.436 587.532 166.775C587.042 166.5 586.672 166.285 586.418 166.129C585.302 165.485 584.429 164.699 583.793 163.768C583.159 162.838 582.843 161.887 582.843 160.912C582.843 159.287 583.464 158.001 584.698 157.051C585.933 156.094 587.612 155.62 589.741 155.62C590.531 155.62 591.301 155.68 592.04 155.795C592.785 155.915 593.494 156.09 594.179 156.325Z" fill="#035C3C"/>
<path d="M234.942 53.8336H209.392V72.0398H234.942V53.8336Z" fill="#035C3C"/>
<path d="M209.392 132.385H234.942V77.8168H209.392V132.385Z" fill="#035C3C"/>
<path d="M134.032 77.8181L150.687 103.076L133.317 132.386H159.389L168.006 114.808L176.307 132.386H203.323L185.429 102.623L200.601 77.8181H175.575L168.494 94.1913L161.414 77.8181H134.032Z" fill="#035C3C"/>
<path d="M128.311 53.8336H102.761V72.0398H128.311V53.8336Z" fill="#035C3C"/>
<path d="M102.761 132.385H128.311V77.8168H102.761V132.385Z" fill="#035C3C"/>
<path d="M299.053 71.2891L299.889 61.0943C294.797 58.9835 289.494 57.9528 283.932 58.0226C272.979 58.0924 264.067 61.478 257.196 68.2C250.15 74.9539 246.609 84.0498 246.54 95.5006C246.609 107.232 250.046 116.501 256.846 123.274C263.544 130.134 272.543 133.589 283.845 133.659C286.077 133.659 288.658 133.467 291.571 133.102C294.466 132.822 297.274 132.14 299.994 131.023L299.349 120.935C297.518 121.946 295.198 122.784 292.356 123.431C289.372 124.128 286.565 124.46 283.932 124.46C276.433 124.39 270.172 121.755 265.149 116.518C259.951 111.474 257.335 104.56 257.266 95.8321C257.335 87.3846 259.829 80.5405 264.747 75.2868C269.649 69.9619 276.206 67.2565 284.437 67.1868C289.653 67.1868 294.518 68.5489 299.053 71.2891ZM313.058 132.386H322.877V108.069C322.877 101.262 324.201 95.9542 326.836 92.1309C329.347 88.2742 332.73 86.319 336.985 86.2492C338.66 86.2492 340.422 86.5632 342.236 87.1738V78.4283C340.526 77.9398 338.416 77.7131 335.87 77.7131C333.114 77.7131 330.497 78.5678 328.021 80.2963C325.614 82.0247 323.696 84.3289 322.265 87.1738H322.075V78.9865H313.058V132.386ZM393.545 120.305C392.272 121.353 390.145 122.489 387.163 123.692C384.092 125.018 380.919 125.682 377.605 125.682C373.018 125.613 369.059 123.937 365.727 120.654C362.362 117.408 360.652 113.131 360.582 107.843H397.469C397.469 103.513 397.138 99.4983 396.476 95.7972C395.725 92.1847 394.434 89.0069 392.621 86.2841C389.185 80.715 383.221 77.8526 374.708 77.7131C367.314 77.7828 361.473 80.2614 357.147 85.1313C352.77 90.1059 350.538 96.636 350.466 104.717C350.466 113.515 352.665 120.499 357.041 125.682C361.367 130.936 368.1 133.589 377.221 133.659C381.423 133.589 384.755 133.171 387.266 132.386C389.674 131.599 391.766 130.866 393.545 130.186V120.305ZM360.582 100.58C360.914 96.8802 362.17 93.5279 364.35 90.5086C366.495 87.4354 369.86 85.8306 374.483 85.691C378.687 85.7608 381.878 87.1912 384.092 90.0027C386.273 92.8825 387.353 96.4077 387.353 100.58H360.582ZM368.344 71.5333H375.146L388.365 56.5049H377.361L368.344 71.5333ZM448.569 132.386H457.97V53.833H448.151V86.3016H447.959C446.546 83.7183 444.488 81.6235 441.785 80.0172C439.03 78.4806 435.402 77.7131 430.902 77.7131C423.403 77.8526 417.857 80.5405 414.23 85.7957C410.532 90.9447 408.666 97.2451 408.666 104.717C408.666 112.275 410.462 118.875 414.038 124.512C417.525 130.378 423.107 133.415 430.797 133.659C435.436 133.589 439.204 132.595 442.099 130.692C445.047 128.894 447.14 126.939 448.36 124.863H448.569V132.386ZM418.782 105.485C418.641 100.371 419.723 95.8146 422.025 91.8184C424.172 87.8716 427.798 85.8306 432.925 85.691C438.088 85.8306 441.907 87.9239 444.401 91.9739C446.912 95.9367 448.151 100.545 448.151 105.783C448.151 110.461 446.964 114.86 444.61 118.979C442.205 123.309 438.35 125.543 433.03 125.682C430.519 125.682 428.373 124.985 426.559 123.588C424.728 122.33 423.21 120.689 422.025 118.683C419.723 114.354 418.641 109.955 418.782 105.485ZM477.119 132.386H486.939V78.988H477.119V132.386ZM487.549 55.9801H476.492V67.0298H487.549V55.9801ZM532.703 78.9865H519.028V63.4871L509.21 66.6111V78.9865H497.543V86.9644H509.21V118.123C509.419 128.545 514.773 133.729 525.289 133.659C526.859 133.659 528.36 133.467 529.789 133.102C531.22 132.752 532.459 132.455 533.504 132.176V123.797C532.074 124.985 529.928 125.613 527.034 125.682C524.819 125.682 522.97 124.844 521.452 123.186C519.831 121.58 519.028 119.241 519.028 116.185V86.9644H532.703V78.9865ZM542.381 105.695C542.451 113.498 544.927 120.026 549.81 125.281C554.521 130.692 560.85 133.486 568.769 133.659C576.652 133.486 582.999 130.692 587.812 125.281C592.54 120.026 594.929 113.498 594.999 105.678C594.929 97.3686 592.54 90.6656 587.812 85.5849C583.14 80.401 576.792 77.7828 568.769 77.7131C560.711 77.7828 554.362 80.401 549.706 85.5849C544.892 90.6656 542.451 97.3686 542.381 105.695ZM552.497 105.695C552.497 100.371 553.944 95.71 556.856 91.7312C559.63 87.8381 563.605 85.8306 568.769 85.691C573.896 85.8306 577.872 87.8381 580.715 91.7312C583.489 95.71 584.883 100.371 584.883 105.678C584.883 110.635 583.593 115.139 581.011 119.189C578.397 123.448 574.314 125.613 568.769 125.682C563.206 125.613 559.107 123.448 556.455 119.189C553.822 115.139 552.497 110.635 552.497 105.695Z" fill="#89C765"/>
</svg>
